<?xml version="1.0" encoding="UTF-8"?>
<!DOCTYPE svg PUBLIC "-//W3C//DTD SVG 1.1//EN" "http://www.w3.org/Graphics/SVG/1.1/DTD/svg11.dtd">
<svg xmlns="http://www.w3.org/2000/svg" version="1.1" width="1500px" height="1500px" style="shape-rendering:geometricPrecision; text-rendering:geometricPrecision; image-rendering:optimizeQuality; fill-rule:evenodd; clip-rule:evenodd" xmlns:xlink="http://www.w3.org/1999/xlink">
<g><path style="opacity:1" fill="#7b2d5f" d="M 766.5,1363.5 C 760.509,1362.83 754.343,1362.5 748,1362.5C 741.462,1362.5 735.295,1363.17 729.5,1364.5C 562.114,1355.36 421.947,1289.36 309,1166.5C 191.209,1029.58 139.543,870.245 154,688.5C 166.905,565.372 211.238,455.372 287,358.5C 295.253,347.41 304.42,337.077 314.5,327.5C 317.279,326.111 320.279,325.278 323.5,325C 322.044,324.577 321.544,323.744 322,322.5C 323.532,320.438 325.532,319.104 328,318.5C 329.413,316.348 330.246,314.014 330.5,311.5C 334.233,306.26 338.566,301.426 343.5,297C 473.195,177.85 626.529,124.516 803.5,137C 932.674,151.294 1045.67,201.461 1142.5,287.5C 1252.51,389.494 1318.34,515.16 1340,664.5C 1361.52,846.367 1315.35,1008.37 1201.5,1150.5C 1099.25,1270.13 969.915,1340.3 813.5,1361C 797.927,1363 782.26,1363.84 766.5,1363.5 Z"/></g>
<g><path style="opacity:1" fill="#b81c68" d="M 539.5,251.5 C 536.167,251.167 532.833,250.833 529.5,250.5C 529.5,504.5 529.5,758.5 529.5,1012.5C 528.5,759.001 528.167,505.334 528.5,251.5C 529.514,250.235 531.014,249.569 533,249.5C 535.544,249.336 537.71,250.003 539.5,251.5 Z"/></g>
<g><path style="opacity:1" fill="#d6156d" d="M 539.5,251.5 C 548.23,251.612 555.897,254.445 562.5,260C 566.905,260.331 569.905,262.497 571.5,266.5C 574.45,268.115 577.116,270.115 579.5,272.5C 585.431,278.923 590.764,285.757 595.5,293C 599.827,302.156 604.327,311.323 609,320.5C 612.239,332.222 615.906,343.889 620,355.5C 625.394,378.165 630.06,400.831 634,423.5C 635.118,440.587 636.952,457.587 639.5,474.5C 639.871,496.05 641.204,517.383 643.5,538.5C 643.5,538.833 643.5,539.167 643.5,539.5C 643.833,553.183 643.499,566.85 642.5,580.5C 641.833,580.167 641.167,579.833 640.5,579.5C 639.762,584.67 639.096,589.837 638.5,595C 639.127,597.135 639.627,599.302 640,601.5C 640.333,596.5 640.667,591.5 641,586.5C 641.419,585.328 642.085,584.328 643,583.5C 644.26,587.67 644.427,591.836 643.5,596C 644.674,600.402 645.341,604.902 645.5,609.5C 645.985,626.668 646.652,643.668 647.5,660.5C 646.836,733.174 647.503,805.508 649.5,877.5C 649.244,929.243 651.077,980.909 655,1032.5C 658.61,1059.84 663.61,1086.84 670,1113.5C 673.327,1122.15 676.661,1130.81 680,1139.5C 680.925,1140.05 681.758,1140.71 682.5,1141.5C 685.651,1149.06 689.317,1156.4 693.5,1163.5C 703.672,1178.03 715.339,1191.19 728.5,1203C 741.015,1212.75 754.015,1221.75 767.5,1230C 773.186,1232.37 778.853,1234.7 784.5,1237C 787.325,1240.49 790.991,1242.15 795.5,1242C 804.616,1246.93 813.949,1251.27 823.5,1255C 830.854,1257.02 838.187,1259.02 845.5,1261C 850.715,1263.95 856.382,1265.61 862.5,1266C 864.5,1267 866.5,1268 868.5,1269C 877.65,1270.74 886.65,1272.58 895.5,1274.5C 848.998,1275.83 802.332,1275.83 755.5,1274.5C 745.628,1272.68 735.628,1271.35 725.5,1270.5C 715.188,1268.52 705.188,1265.52 695.5,1261.5C 663.883,1249.36 636.217,1231.19 612.5,1207C 611.234,1206.69 610.067,1206.19 609,1205.5C 600.393,1194.72 591.559,1184.05 582.5,1173.5C 578.609,1165.79 573.776,1158.79 568,1152.5C 564.223,1145.05 560.889,1137.38 558,1129.5C 557,1128.83 556,1128.17 555,1127.5C 550.791,1113.54 545.791,1099.87 540,1086.5C 537.808,1075.37 535.308,1064.37 532.5,1053.5C 530.359,1039.93 529.359,1026.26 529.5,1012.5C 529.5,758.5 529.5,504.5 529.5,250.5C 532.833,250.833 536.167,251.167 539.5,251.5 Z"/></g>
<g><path style="opacity:1" fill="#9d2363" d="M 528.5,251.5 C 528.167,505.334 528.5,759.001 529.5,1012.5C 529.359,1026.26 530.359,1039.93 532.5,1053.5C 531.139,1049.38 530.139,1045.05 529.5,1040.5C 528.668,1031.52 528.168,1022.52 528,1013.5C 527.167,759.333 527.334,505.333 528.5,251.5 Z"/></g>
<g><path style="opacity:0.813" fill="#915677" d="M 330.5,311.5 C 330.246,314.014 329.413,316.348 328,318.5C 325.532,319.104 323.532,320.438 322,322.5C 321.544,323.744 322.044,324.577 323.5,325C 320.279,325.278 317.279,326.111 314.5,327.5C 314.369,326.761 314.536,326.094 315,325.5C 320.057,320.604 325.224,315.937 330.5,311.5 Z"/></g>
<g><path style="opacity:1" fill="#f183b0" d="M 1030.5,921.5 C 1031.51,927.679 1033.01,933.679 1035,939.5C 1035.67,954.833 1035.67,970.167 1035,985.5C 1033.65,987.594 1033.15,989.927 1033.5,992.5C 1033.22,1000.09 1031.72,1007.42 1029,1014.5C 1013.04,1054.46 985.538,1083.29 946.5,1101C 928.759,1107.85 910.426,1112.35 891.5,1114.5C 875.83,1114.67 860.163,1114.5 844.5,1114C 834.495,1112.17 824.495,1110.33 814.5,1108.5C 798.167,1104.33 782.501,1098.5 767.5,1091C 740.455,1074.95 718.288,1053.79 701,1027.5C 697.265,1020.37 693.265,1013.37 689,1006.5C 687.65,1000.73 685.984,995.061 684,989.5C 682.264,982.616 681.097,975.616 680.5,968.5C 680.5,807.167 680.5,645.833 680.5,484.5C 687.593,435.203 711.926,397.369 753.5,371C 756.016,368.317 758.683,365.817 761.5,363.5C 768.729,359.685 776.062,356.018 783.5,352.5C 794.891,348.982 806.224,345.149 817.5,341C 878.578,325.966 934.578,336.3 985.5,372C 1005.78,390.117 1020.95,411.617 1031,436.5C 1032.71,444.909 1034.71,453.242 1037,461.5C 1037.67,478.167 1037.67,494.833 1037,511.5C 1031.12,533.128 1022.12,553.462 1010,572.5C 991.745,594.755 971.578,614.922 949.5,633C 948.552,633.483 947.552,633.649 946.5,633.5C 946.67,634.822 946.337,635.989 945.5,637C 903.095,667.029 858.761,693.696 812.5,717C 811.833,718 811.167,719 810.5,720C 807.204,721.511 803.871,722.677 800.5,723.5C 800.5,724.833 800.5,726.167 800.5,727.5C 816.893,735.478 832.893,744.311 848.5,754C 850.608,754.36 852.608,755.027 854.5,756C 864.193,762.229 874.193,767.896 884.5,773C 899.541,782.728 914.541,792.394 929.5,802C 948.615,816.995 967.115,832.828 985,849.5C 988.589,855.093 992.922,860.093 998,864.5C 1010.41,879.903 1020.74,896.57 1029,914.5C 1029.66,916.813 1030.16,919.146 1030.5,921.5 Z"/></g>
<g><path style="opacity:1" fill="#ae1f66" d="M 639.5,474.5 C 641.913,495.618 643.247,516.951 643.5,538.5C 641.204,517.383 639.871,496.05 639.5,474.5 Z"/></g>
<g><path style="opacity:1" fill="#c21a6a" d="M 643.5,539.5 C 645.839,570.632 647.172,601.966 647.5,633.5C 647.5,642.5 647.5,651.5 647.5,660.5C 646.652,643.668 645.985,626.668 645.5,609.5C 645.341,604.902 644.674,600.402 643.5,596C 644.427,591.836 644.26,587.67 643,583.5C 642.085,584.328 641.419,585.328 641,586.5C 640.667,591.5 640.333,596.5 640,601.5C 639.627,599.302 639.127,597.135 638.5,595C 639.096,589.837 639.762,584.67 640.5,579.5C 641.167,579.833 641.833,580.167 642.5,580.5C 643.499,566.85 643.833,553.183 643.5,539.5 Z"/></g>
<g><path style="opacity:1" fill="#b85a89" d="M 680.5,484.5 C 680.5,645.833 680.5,807.167 680.5,968.5C 679.048,961.052 678.381,953.385 678.5,945.5C 679.146,791.67 679.812,638.003 680.5,484.5 Z"/></g>
<g><path style="opacity:1" fill="#ac1f66" d="M 647.5,633.5 C 648.961,714.662 649.627,795.996 649.5,877.5C 647.503,805.508 646.836,733.174 647.5,660.5C 647.5,651.5 647.5,642.5 647.5,633.5 Z"/></g>
<g><path style="opacity:1" fill="#c56492" d="M 1030.5,921.5 C 1033.6,928.771 1035.76,936.438 1037,944.5C 1037.67,956.5 1037.67,968.5 1037,980.5C 1036.71,984.868 1035.54,988.868 1033.5,992.5C 1033.15,989.927 1033.65,987.594 1035,985.5C 1035.67,970.167 1035.67,954.833 1035,939.5C 1033.01,933.679 1031.51,927.679 1030.5,921.5 Z"/></g>
<g><path style="opacity:1" fill="#bf5e8f" d="M 814.5,1108.5 C 824.495,1110.33 834.495,1112.17 844.5,1114C 860.163,1114.5 875.83,1114.67 891.5,1114.5C 870.164,1117.55 848.83,1116.89 827.5,1112.5C 822.831,1111.9 818.498,1110.56 814.5,1108.5 Z"/></g>
<g><path style="opacity:1" fill="#a52165" d="M 725.5,1270.5 C 735.628,1271.35 745.628,1272.68 755.5,1274.5C 802.332,1275.83 848.998,1275.83 895.5,1274.5C 897.527,1274.34 899.527,1274.5 901.5,1275C 900.833,1275.67 900.167,1276.33 899.5,1277C 849.817,1277.93 800.151,1277.6 750.5,1276C 741.94,1274.6 733.607,1272.76 725.5,1270.5 Z"/></g>
<g><path style="opacity:0.149" fill="#a57191" d="M 766.5,1363.5 C 754.345,1364.5 742.011,1364.83 729.5,1364.5C 735.295,1363.17 741.462,1362.5 748,1362.5C 754.343,1362.5 760.509,1362.83 766.5,1363.5 Z"/></g>
</svg>
